<svg width="22" height="26" viewBox="0 0 22 26" fill="none" xmlns="http://www.w3.org/2000/svg">
<path d="M18.4056 13.8246C18.3827 10.5446 21.1987 8.93757 21.3361 8.87153C19.7334 6.62613 17.2608 6.31794 16.368 6.29592C14.2846 6.07579 12.2698 7.50668 11.1938 7.50668C10.1178 7.50668 8.46935 6.31794 6.70647 6.36196C4.43992 6.40599 2.31073 7.66077 1.14311 9.61999C-1.26081 13.6265 0.524958 19.5042 2.8373 22.7182C3.98203 24.3031 5.3328 26.0642 7.09568 25.9982C8.81277 25.9322 9.45381 24.9415 11.5372 24.9415C13.5977 24.9415 14.193 25.9982 16.0016 25.9542C17.8561 25.9322 19.0237 24.3692 20.1227 22.7622C21.4505 20.9571 21.9771 19.1519 22 19.0639C22 19.0639 18.4514 17.7651 18.4056 13.8246ZM15.0172 4.16059C15.933 3.03789 16.574 1.54096 16.3908 0C15.0401 0.0660411 13.3688 0.902562 12.4072 1.98123C11.5601 2.94984 10.7817 4.51281 10.9877 5.98773C12.4988 6.0978 14.0556 5.26128 15.0172 4.16059Z" fill="black"/>
</svg>
