<svg width="26" height="32" viewBox="0 0 26 32" fill="none" xmlns="http://www.w3.org/2000/svg">
  <path d="M2 26.3584V5.64448C2 4.9216 2.42725 4.29664 3.04613 4L15.2487 15.9981L3.04124 28C2.72871 27.8494 2.46546 27.6157 2.2814 27.3255C2.09734 27.0353 1.99985 26.7003 2 26.3584ZM19.1204 19.8035L5.77781 27.3779L16.3007 17.032L19.1204 19.8035ZM23.2678 14.5494C23.4937 14.7185 23.6771 14.9362 23.804 15.1857C23.931 15.4352 23.998 15.7099 24 15.9888C24.0019 16.2677 23.9388 16.5433 23.8155 16.7946C23.6921 17.0458 23.5118 17.2659 23.2883 17.4381L20.453 19.047L17.3527 15.9981L20.452 12.9501L23.2678 14.5494ZM5.78563 4.624L19.1184 12.1926L16.3007 14.9622L5.78563 4.624Z" fill="black" />
</svg>