<svg xmlns="http://www.w3.org/2000/svg" width="32" height="21"><path fill="#2D2D2D" fill-rule="evenodd" d="M3.035 18H0V0h21l1 2h5c1.667 2.657 5 7 5 7v9h-3.115c-.164 1.653-1.34 3-3.369 3-2.028 0-3.279-1.424-3.367-3H9.965a3.502 3.502 0 01-6.93 0zm6.63-1.995a3.5 3.5 0 00-6.329-.002M30 13v3h-1.142c-.718-1.305-1.813-1.963-3.285-1.975-1.561-.012-2.702.646-3.424 1.975H22V4h4l4 6v3zm-.651-4l.652 1H24V6h3.325l1.71 2.556.314.444zM2 2h18v14H2V2zm23.5 14a1.5 1.5 0 11-.001 3.001A1.5 1.5 0 0125.5 16zm-19 0a1.5 1.5 0 11-.001 3.001A1.5 1.5 0 016.5 16zm22.535-7.444L27.935 7H25v2h4.332l-.297-.444z"></path></svg>